<?xml version="1.0" encoding="UTF-8"?>
<svg id="uuid-3a8eae58-d4ca-4e1c-9823-dbdc56c0ba45" data-name="Layer 2" xmlns="http://www.w3.org/2000/svg" viewBox="0 0 67.68 28.6">
  <g id="uuid-7671bd9f-7ff4-4cd7-9566-e9b4c66d45df" data-name="Layer 1">
    <path d="m6.47.74c2.18-.33,4.78-.58,7.63-.58,5.15,0,8.82,1.2,11.25,3.46,2.47,2.27,3.92,5.48,3.92,9.98s-1.4,8.25-4,10.8c-2.6,2.6-6.88,4-12.29,4-2.56,0-4.7-.12-6.51-.33V.74Zm3.59,24.57c.91.17,2.23.21,3.63.21,7.67,0,11.83-4.29,11.83-11.79.04-6.56-3.67-10.72-11.25-10.72-1.86,0-3.26.17-4.21.37v21.93Z" style="fill: #b7b7b7; stroke-width: 0px;"/>
    <path d="m44.88.58c2.18-.33,4.78-.58,7.63-.58,5.15,0,8.82,1.21,11.25,3.51,2.47,2.3,3.92,5.55,3.92,10.1s-1.4,8.35-4,10.94c-2.6,2.63-6.88,4.05-12.29,4.05-2.56,0-4.7-.13-6.51-.33V.58Zm3.59,24.89c.91.17,2.23.21,3.63.21,7.67,0,11.83-4.34,11.83-11.94.04-6.64-3.67-10.86-11.25-10.86-1.86,0-3.26.17-4.21.38v22.21Z" style="fill: #b7b7b7; stroke-width: 0px;"/>
    <path d="m27.97,19.66l-2.89,8.74h-3.71L30.82.61h4.33l9.48,27.79h-3.83l-2.97-8.74h-9.85Zm9.11-2.8l-2.72-8c-.62-1.81-1.03-3.46-1.44-5.07h-.08c-.41,1.65-.87,3.34-1.4,5.03l-2.72,8.04h8.37Z" style="stroke-width: 0px;"/>
    <path d="m48.46.59v27.79h-3.59V.59h3.59Z" style="stroke-width: 0px;"/>
    <path d="m0,8.86c0-1.53,1.03-2.6,2.47-2.6s2.39,1.07,2.43,2.6c0,1.44-.95,2.56-2.47,2.56-1.44,0-2.43-1.11-2.43-2.56Zm0,10.84c0-1.53,1.03-2.6,2.47-2.6s2.39,1.07,2.43,2.6c0,1.44-.95,2.56-2.47,2.56-1.44,0-2.43-1.11-2.43-2.56Z" style="fill: #b7b7b7; stroke-width: 0px;"/>
  </g>
</svg>